<svg width="157" height="35" viewBox="0 0 157 35" fill="none" xmlns="http://www.w3.org/2000/svg"><path d="M119.518.002h-5.389v13.064L106.304.002h-5.389V22.04h5.389V9.002l7.814 13.037h5.4V.002zm27.654 9.995h-2.603l6.426 12.032H157l-5.145-9.074.028-.011c2.187-1.11 3.297-3.663 3.297-6.005 0-3.202-1.571-5.45-4.063-6.404-.954-.372-1.803-.55-4.278-.522h-7.67v22.021h5.389l-.006-17.437h2.62c1.537 0 2.541.91 2.541 2.686 0 1.776-.965 2.714-2.541 2.714zm-117.648 0h-2.603l6.427 12.032h6.005l-5.14-9.074.028-.011c2.187-1.11 3.297-3.663 3.297-6.005 0-3.202-1.57-5.45-4.062-6.404-.96-.378-1.804-.555-4.285-.533h-7.67v22.02h5.39l-.006-17.436h2.62c1.537 0 2.541.91 2.541 2.686 0 1.787-.96 2.725-2.542 2.725zM62.023.002h7.825c6.932 0 11.366 4.034 11.366 10.966 0 6.931-4.434 11.06-11.366 11.06h-7.825V.002zm7.609 17.404c3.724 0 6.01-2.22 6.01-6.438 0-4.19-2.375-6.343-6.01-6.343h-2.22v12.78h2.22zM83.85.002h13.796v4.623H89.24v4.001h6.715v4.623H89.24v4.157h8.84v4.622H83.85V.002zm38.37 0h13.63v4.623h-8.241v4.001h6.715v4.623h-6.715v4.157h8.841v4.622h-14.23V.002zM55.413 22.023h5.533L53.46.002h-5.666l-7.481 22.02h5.533l1.287-4.589h7.004l1.276 4.59zm-7.009-9.146l2.226-7.942 2.225 7.942h-4.45zM18.886.002H0v4.562h6.687v17.459h6.1V4.563h6.098V.003z" fill="#fff"/><path d="M16.16 12.566l2.726-8.002H12.78L9.557 14.03h2.724l-2.724 8.003h2.758L8.058 34.715l10.828-14.068h-2.753l2.753-8.08H16.16z" fill="#F28E00"/></svg>